<?xml version="1.0" standalone="no"?>
<!DOCTYPE svg PUBLIC "-//W3C//DTD SVG 20010904//EN"
 "http://www.w3.org/TR/2001/REC-SVG-20010904/DTD/svg10.dtd">
<svg version="1.0" xmlns="http://www.w3.org/2000/svg"
 width="521.000000pt" height="521.000000pt" viewBox="0 0 521.000000 521.000000"
 preserveAspectRatio="xMidYMid meet">
<metadata>
Created by potrace 1.11, written by Peter Selinger 2001-2013
</metadata>
<g transform="translate(0.000000,521.000000) scale(0.100000,-0.100000)"
fill="#000000" stroke="none">
<path d="M2512 4687 c-46 -89 -120 -234 -165 -322 -46 -88 -141 -272 -211
-410 -71 -137 -152 -295 -181 -350 -29 -55 -101 -194 -160 -310 -59 -115 -138
-268 -175 -340 -37 -71 -114 -220 -170 -330 -56 -110 -135 -263 -175 -340 -84
-162 -201 -391 -340 -660 -54 -104 -130 -253 -170 -330 -40 -77 -116 -224
-169 -327 l-96 -186 1733 -1 c952 0 1743 -1 1757 -1 19 0 31 -9 44 -35 27 -50
107 -122 163 -147 38 -17 68 -22 143 -22 83 -1 102 2 150 25 225 109 279 401
105 574 -141 142 -365 141 -507 -1 -26 -25 -52 -59 -58 -75 l-12 -29 -1519 0
c-836 0 -1519 3 -1519 6 0 6 189 377 290 569 26 50 100 194 165 320 65 127
146 284 180 350 34 66 109 210 165 320 114 222 218 425 510 990 43 83 126 245
185 360 59 116 111 213 114 217 4 4 77 -131 163 -300 209 -412 587 -1159 714
-1411 l103 -204 -25 -36 c-61 -94 -70 -237 -20 -341 32 -65 46 -83 106 -131
60 -49 128 -71 221 -72 64 -1 85 4 140 30 112 52 189 153 208 270 9 61 -8 165
-37 220 -56 107 -192 192 -307 193 -29 0 -34 8 -221 378 -634 1254 -1035 2046
-1038 2049 -1 1 -39 -71 -84 -160z m1409 -2543 c30 -27 44 -87 30 -123 -18
-42 -44 -62 -89 -68 -83 -11 -147 61 -121 139 14 43 32 61 74 75 34 11 79 2
106 -23z m477 -1124 c34 -21 63 -72 57 -100 -19 -91 -95 -130 -173 -88 -72 38
-65 160 11 193 44 19 67 18 105 -5z"/>
</g>
</svg>
